<?xml version="1.0" encoding="utf-8"?>
<!-- Generator: Adobe Illustrator 20.0.0, SVG Export Plug-In . SVG Version: 6.00 Build 0)  -->
<svg version="1.1" xmlns="http://www.w3.org/2000/svg" xmlns:xlink="http://www.w3.org/1999/xlink" x="0px" y="0px"
	 viewBox="0 0 360 360" style="enable-background:new 0 0 360 360;" xml:space="preserve">
<style type="text/css">
	.st0{display:none;}
	.st1{display:inline;fill:#C4C6C7;}
	.st2{fill:#2D2F30;}
</style>
<g id="Background_Gray" class="st0">
	<rect class="st1" width="360" height="360"/>
</g>
<g id="Artwork">
	<path id="DS" class="st2" d="M299.5,209.2c2.1,0.1,2.2,13.1-11.1,19.8c-11.5,7.1-23,14.1-34.6,21c-4.5,2.7-29.7,15.7-32.6,17
		c-18.9,8.4-37.6,17.2-58.3,20.4c-4.5,0.7-9.1,0.6-13.7,0.7c-3.8,0.1-6.9-1.7-6.8-5.5c0-2.1,1.9-5.1,3.9-6.1
		c7-3.9,33.6-15.7,33.9-15.8c20.7-8.8,41.4-17.8,59.2-31.9c4.7-3.7,8.9-8.3,12.2-13.2c5.9-8.8,4.3-16.9-5.2-21.7
		c-8.5-4.3-17.9-7.4-27.1-10.1c-16.3-4.8-32.9-8.6-49.2-13.4c-4.6-1.3-9.1-4-13-6.8c-8-5.7-10.3-13.3-5-21.5
		c5.4-8.3,11.8-16.5,19.2-23c29.5-25.4,63.4-42,102.2-46.9c15.1-1.9,30.4-1.4,44.8,4.8c15.9,6.9,24.6,22.4,22.2,39.5
		c-1.2,8.8-8.6,13.9-17,11.8c-5.3-1.3-6.7-5.9-3.1-10c0.2-0.3,0.5-0.5,0.8-0.8c7.7-7.6,6.9-12.5-3.6-16.4
		c-19.3-7.3-39.2-8.2-59.3-3.5c-26.6,6.2-51.6,16.3-73.9,32.2c-5,3.6-9.6,8-13.4,12.9c-5.6,7.2-4,12.7,4.6,15.7
		c7.4,2.5,15.1,4,22.8,5.5c20.3,3.8,40.6,7.3,60.9,11c0.5,0.1,1,0.3,1.6,0.5c21.8,7.6,27,19.6,17.8,40.7c-0.6,1.3-1.8,3.1-1.7,3.8
		c0.1,0.7,0.2,1.2,1,1.2C278.8,221.2,297.4,209.2,299.5,209.2z M88.9,261.1c51.9-8.6,70.1-52.2,55.8-94.9
		c-8.9-26.6-30.9-38.4-57.1-41.5c-18.8-2.2-38-1.3-57-1.8c-3.4-0.1-6.9,0-10.6,0c0,46.9,0,93.2,0,141
		C43.3,263.1,66.5,264.8,88.9,261.1z M50.9,151.8c14.7-0.2,29.3-1.5,43.2,4.7c16,7.2,24.4,22,22.6,40.1c-1.9,19-11.9,31.7-29.9,35.2
		c-11.5,2.2-23.5,2.3-35.9,3.4C50.9,206.5,50.9,179.4,50.9,151.8z"/>
</g>
<g id="Guides">
</g>
</svg>
